<?xml version="1.0" encoding="utf-8" ?>
<svg xmlns="http://www.w3.org/2000/svg" xmlns:xlink="http://www.w3.org/1999/xlink" width="18.0355" height="21.1997" viewBox="0 0 18.0355 21.1997">
	<path d="M13.841 14.659L14.017 14.836L14.1945 14.659C15.0732 13.7803 16.4978 13.7803 17.3765 14.659C18.2552 15.5377 18.2552 16.9623 17.3765 17.841L14.0178 21.1997L10.659 17.841C9.7803 16.9623 9.7803 15.5377 10.659 14.659C11.5377 13.7803 12.9623 13.7803 13.841 14.659ZM8 13L8 15C4.68629 15 2 17.6863 2 21L0 21C0 16.6651 3.44784 13.1355 7.7508 13.0038L8 13ZM8 0C11.315 0 14 2.685 14 6C14 9.2397 11.4357 11.8776 8.225 11.9959L8 12C4.685 12 2 9.315 2 6C2 2.76034 4.56434 0.12237 7.775 0.00414002L8 0ZM8 2C5.78957 2 4 3.78957 4 6C4 8.21043 5.78957 10 8 10C10.2104 10 12 8.21043 12 6C12 3.78957 10.2104 2 8 2Z" fill-rule="nonzero" transform="matrix(1 0 0 1 0 0)" fill="rgb(227, 201, 52)"/>
</svg>
