<?xml version="1.0" encoding="utf-8" ?>
<svg xmlns="http://www.w3.org/2000/svg" xmlns:xlink="http://www.w3.org/1999/xlink" width="16.6667" height="16.6667" viewBox="0 0 16.6667 16.6667">
	<path d="M8.33333 16.6667C3.73096 16.6667 0 12.9357 0 8.33333C0 3.73096 3.73096 0 8.33333 0C12.9357 0 16.6667 3.73096 16.6667 8.33333C16.6667 12.9357 12.9357 16.6667 8.33333 16.6667ZM6.42502 14.7228C5.62286 13.0216 5.1311 11.1452 5.02276 9.16667L1.71824 9.16667C2.04833 11.8137 3.93032 13.9789 6.42502 14.7228ZM6.69225 9.16667C6.81758 11.199 7.39817 13.1081 8.33333 14.7933C9.2685 13.1081 9.84908 11.199 9.97442 9.16667L6.69225 9.16667ZM14.9484 9.16667L11.6439 9.16667C11.5356 11.1452 11.0438 13.0216 10.2417 14.7228C12.7363 13.9789 14.6183 11.8137 14.9484 9.16667ZM1.71824 7.5L5.02276 7.5C5.1311 5.52147 5.62286 3.64506 6.42502 1.9438C3.93032 2.68777 2.04833 4.85292 1.71824 7.5ZM6.69225 7.5L9.97442 7.5C9.84908 5.46768 9.2685 3.55854 8.33333 1.87333C7.39817 3.55854 6.81758 5.46768 6.69225 7.5ZM10.2417 1.9438C11.0438 3.64506 11.5356 5.52147 11.6439 7.5L14.9484 7.5C14.6183 4.85292 12.7363 2.68777 10.2417 1.9438Z" fill-rule="nonzero" transform="matrix(1 0 0 1 4.06504e-05 -8.14199e-05)" fill="rgb(180, 180, 180)"/>
</svg>
