<?xml version="1.0" encoding="utf-8" ?>
<svg xmlns="http://www.w3.org/2000/svg" xmlns:xlink="http://www.w3.org/1999/xlink" width="19" height="21" viewBox="0 0 19 21">
	<path d="M10 13.252L10 15.3414C9.3744 15.1203 8.7013 15 8 15C4.68629 15 2 17.6863 2 21L0 21C0 16.5817 3.58172 13 8 13C8.6906 13 9.3608 13.0875 10 13.252ZM8 12C4.685 12 2 9.315 2 6C2 2.685 4.685 0 8 0C11.315 0 14 2.685 14 6C14 9.315 11.315 12 8 12ZM8 10C10.21 10 12 8.21 12 6C12 3.79 10.21 2 8 2C5.79 2 4 3.79 4 6C4 8.21 5.79 10 8 10ZM14 16L14 13L16 13L16 16L19 16L19 18L16 18L16 21L14 21L14 18L11 18L11 16L14 16Z" fill-rule="nonzero" transform="matrix(1 0 0 1 0 0)" fill="rgb(227, 201, 52)"/>
</svg>
