<?xml version="1.0" encoding="utf-8" ?>
<svg xmlns="http://www.w3.org/2000/svg" xmlns:xlink="http://www.w3.org/1999/xlink" width="32" height="12.8203" viewBox="0 0 32 12.8203">
	<path d="M24.0641 0L8.06061 0C5.20119 -0.000326538 2.98001 0.952039 1.3971 2.8571C-0.185821 4.76215 -0.423648 6.76922 0.683615 8.87829C1.79088 10.9874 3.74879 12.2567 6.55736 12.6862C9.36593 13.1157 11.771 12.5136 13.7726 10.88L18.3486 10.88C20.3499 12.5134 22.7547 13.1155 25.563 12.6863C28.3713 12.2571 30.3292 10.9882 31.4369 8.87958C32.5446 6.77098 32.3075 4.76407 30.7256 2.85884C29.1437 0.953622 26.9232 0.000673828 24.0641 0ZM12.4606 6.88C12.4606 7.01255 12.402 7.12568 12.2849 7.21941C12.1677 7.31314 12.0263 7.36 11.8606 7.36L9.26061 7.36L9.26061 9.44C9.26061 9.57255 9.20203 9.68568 9.08488 9.77941C8.96772 9.87314 8.8263 9.92 8.66061 9.92L7.46061 9.92C7.29493 9.92 7.15351 9.87314 7.03635 9.77941C6.91919 9.68568 6.86061 9.57255 6.86061 9.44L6.86061 7.36L4.26061 7.36C4.09493 7.36 3.95351 7.31314 3.83635 7.21941C3.71919 7.12568 3.66061 7.01255 3.66061 6.88L3.66061 5.92C3.66061 5.78745 3.71919 5.67431 3.83635 5.58059C3.95351 5.48686 4.09493 5.44 4.26061 5.44L6.86061 5.44L6.86061 3.36C6.86061 3.22745 6.91919 3.11431 7.03635 3.02059C7.15351 2.92686 7.29493 2.88 7.46061 2.88L8.66061 2.88C8.8263 2.88 8.96772 2.92686 9.08488 3.02059C9.20203 3.11431 9.26061 3.22745 9.26061 3.36L9.26061 5.44L11.8606 5.44C12.0263 5.44 12.1677 5.48686 12.2849 5.58059C12.402 5.67431 12.4606 5.78745 12.4606 5.92L12.4606 6.88ZM23.2606 9.92C22.7083 9.92 22.2369 9.76379 21.8464 9.45137C21.4559 9.13895 21.2606 8.76183 21.2606 8.32C21.2606 7.87817 21.4559 7.50105 21.8464 7.18863C22.2369 6.87621 22.7083 6.72 23.2606 6.72C23.8129 6.72 24.2843 6.87621 24.6748 7.18863C25.0654 7.50105 25.2606 7.87817 25.2606 8.32C25.2606 8.76183 25.0654 9.13895 24.6748 9.45137C24.2843 9.76379 23.8129 9.92 23.2606 9.92ZM26.4606 6.08C25.9083 6.08 25.4369 5.92379 25.0464 5.61137C24.6559 5.29895 24.4606 4.92183 24.4606 4.48C24.4606 4.03817 24.6559 3.66105 25.0464 3.34863C25.4369 3.03621 25.9083 2.88 26.4606 2.88C27.0129 2.88 27.4843 3.03621 27.8748 3.34863C28.2654 3.66105 28.4606 4.03817 28.4606 4.48C28.4606 4.92183 28.2654 5.29895 27.8748 5.61137C27.4843 5.92379 27.0129 6.08 26.4606 6.08Z" fill-rule="nonzero" transform="matrix(1 0 0 1 -0.0606155 -0.00039053)" fill="rgb(180, 180, 180)"/>
</svg>
