<?xml version="1.0" encoding="utf-8" ?>
<svg xmlns="http://www.w3.org/2000/svg" xmlns:xlink="http://www.w3.org/1999/xlink" width="16" height="14" viewBox="0 0 16 14">
	<path d="M1 13C1 13.5531 1.44687 14 2 14L7 14L7 9L1 9L1 13ZM9 14L14 14C14.5531 14 15 13.5531 15 13L15 9L9 9L9 14ZM15 4L13.6844 4C13.8781 3.62187 14 3.20312 14 2.75C14 1.23438 12.7656 0 11.25 0C9.95 0 9.10938 0.665625 8.03125 2.13438C6.95312 0.665625 6.1125 0 4.8125 0C3.29688 0 2.0625 1.23438 2.0625 2.75C2.0625 3.20312 2.18125 3.62187 2.37812 4L1 4C0.446875 4 0 4.44688 0 5L0 7.5C0 7.775 0.225 8 0.5 8L15.5 8C15.775 8 16 7.775 16 7.5L16 5C16 4.44688 15.5531 4 15 4ZM4.80937 4C4.11875 4 3.55937 3.44063 3.55937 2.75C3.55937 2.05937 4.11875 1.5 4.80937 1.5C5.43125 1.5 5.89062 1.60313 7.5 4L4.80937 4ZM11.25 4L8.55937 4C10.1656 1.60938 10.6125 1.5 11.25 1.5C11.9406 1.5 12.5 2.05938 12.5 2.75C12.5 3.44063 11.9406 4 11.25 4Z" fill-rule="nonzero" transform="matrix(1 0 0 1 0 0)" fill="rgb(180, 180, 180)"/>
</svg>
