<?xml version="1.0" encoding="utf-8" ?>
<svg xmlns="http://www.w3.org/2000/svg" xmlns:xlink="http://www.w3.org/1999/xlink" width="18.3749" height="11.2002" viewBox="0 0 18.3749 11.2002">
	<path d="M15.5791 0.945954C15.5765 0.941996 15.5732 0.938512 15.5691 0.935503C15.565 0.932493 15.5604 0.930144 15.5552 0.928454C14.9595 0.709812 14.3487 0.522862 13.7227 0.367603C13.0967 0.212344 12.4608 0.090078 11.815 0.000803804C11.803 -0.000986083 11.7914 0.000213257 11.7804 0.00440183C11.7693 0.00859036 11.7608 0.0149744 11.7549 0.0235538C11.6693 0.14784 11.5877 0.273774 11.5101 0.401355C11.4324 0.528936 11.3588 0.658003 11.2893 0.788554C10.5932 0.704014 9.89302 0.661745 9.1889 0.661745C8.48478 0.661745 7.78464 0.704014 7.0885 0.788554C7.01852 0.657671 6.94409 0.528431 6.8652 0.400834C6.78632 0.273237 6.70309 0.147477 6.61553 0.0235539C6.60938 0.0151798 6.60082 0.00891674 6.58985 0.0047647C6.57888 0.000612688 6.56739 -0.000707579 6.5554 0.0008039C5.90952 0.0898901 5.27358 0.212067 4.64757 0.367333C4.02155 0.5226 3.41075 0.709648 2.81515 0.928479C2.81005 0.930208 2.8054 0.932515 2.8012 0.9354C2.797 0.938284 2.79344 0.941611 2.79053 0.945379C0.408371 3.79133 -0.244192 6.5673 0.0759332 9.3089C0.0768429 9.31569 0.0793722 9.32207 0.0835211 9.32803C0.0876699 9.334 0.0931093 9.33908 0.0998394 9.34328C0.793393 9.7541 1.52529 10.1152 2.29552 10.4265C3.06575 10.7379 3.86328 10.995 4.68812 11.198C4.70002 11.2009 4.71187 11.2007 4.72367 11.1976C4.73547 11.1946 4.74511 11.189 4.75259 11.1811C4.92975 10.9883 5.09668 10.7899 5.25339 10.5861C5.4101 10.3822 5.55605 10.1735 5.69125 9.96005C5.69912 9.94763 5.69987 9.93494 5.69349 9.92198C5.68711 9.90902 5.67575 9.90014 5.6594 9.89535C5.41186 9.81958 5.16846 9.7361 4.92919 9.6449C4.68992 9.55371 4.45553 9.45508 4.22603 9.34903C4.20796 9.34053 4.19831 9.32792 4.19708 9.31119C4.19584 9.29445 4.20356 9.28102 4.22025 9.27088C4.31656 9.21315 4.41293 9.1531 4.5049 9.09245C4.51323 9.08696 4.52275 9.08364 4.53345 9.08249C4.54415 9.08133 4.55442 9.08252 4.56428 9.08605C7.57143 10.184 10.8271 10.184 13.7987 9.08605C13.8085 9.0823 13.8189 9.08094 13.8298 9.082C13.8406 9.08305 13.8503 9.08634 13.8588 9.09188C13.9508 9.15253 14.0471 9.21315 14.1442 9.27088C14.1609 9.28091 14.1688 9.2943 14.1677 9.31103C14.1666 9.32777 14.1571 9.34043 14.1391 9.34903C13.9101 9.45597 13.6759 9.555 13.4365 9.64612C13.197 9.73725 12.9532 9.82013 12.705 9.89478C12.6887 9.89975 12.6774 9.90877 12.6711 9.92182C12.6649 9.93488 12.6658 9.94762 12.6738 9.96005C12.8112 10.1723 12.9582 10.3803 13.1148 10.584C13.2713 10.7877 13.4369 10.9865 13.6117 11.1804C13.619 11.1886 13.6286 11.1943 13.6404 11.1975C13.6523 11.2007 13.6642 11.2009 13.6762 11.1979C14.5025 10.9957 15.3014 10.7388 16.0729 10.4275C16.8445 10.1161 17.5774 9.75472 18.2719 9.34328C18.2787 9.33929 18.2842 9.33434 18.2884 9.32844C18.2926 9.32255 18.295 9.31623 18.2958 9.30948C18.679 6.1399 17.6542 3.38668 15.5791 0.945954ZM6.14034 7.63955C5.23496 7.63955 4.48896 6.97488 4.48896 6.15858C4.48896 5.34228 5.2205 4.67755 6.14034 4.67755C7.06737 4.67755 7.80615 5.34805 7.79168 6.15853C7.79168 6.97488 7.06012 7.63955 6.14034 7.63955ZM12.246 7.63955C11.3406 7.63955 10.5946 6.97488 10.5946 6.15858C10.5946 5.34228 11.3262 4.67755 12.246 4.67755C13.1731 4.67755 13.9118 5.34805 13.8973 6.15853C13.8973 6.97488 13.1731 7.63955 12.246 7.63955Z" fill-rule="nonzero" transform="matrix(1 0 0 1 0 4.88758e-05)" fill="rgb(180, 180, 180)"/>
</svg>
