<?xml version="1.0" encoding="utf-8" ?>
<svg xmlns="http://www.w3.org/2000/svg" xmlns:xlink="http://www.w3.org/1999/xlink" width="18.1008" height="20" viewBox="0 0 18.1008 20">
	<path d="M14.3305 4.0418L12.8215 4.0418L12.8215 8.32695L14.3305 8.32695L14.3305 4.0418ZM10.1832 4.02344L8.67422 4.02344L8.67422 8.31055L10.1832 8.31055L10.1832 4.02344ZM3.77031 0L0 3.57109L0 16.4289L4.52461 16.4289L4.52461 20L8.29531 16.4289L11.3129 16.4289L18.1008 10L18.1008 0L3.77031 0ZM16.5922 9.28711L13.5758 12.1434L10.5586 12.1434L7.91797 14.6434L7.91797 12.1434L4.52461 12.1434L4.52461 1.42891L16.5922 1.42891L16.5922 9.28711Z" fill-rule="nonzero" transform="matrix(1 0 0 1 2.43783e-05 0)" fill="rgb(180, 180, 180)"/>
</svg>
