<?xml version="1.0" encoding="utf-8" ?>
<svg xmlns="http://www.w3.org/2000/svg" xmlns:xlink="http://www.w3.org/1999/xlink" width="18.963" height="11.8518" viewBox="0 0 18.963 11.8518">
	<path d="M18.5667 1.85441C18.3486 1.12448 17.7061 0.549599 16.8902 0.354506C15.4114 0 9.48149 0 9.48149 0C9.48149 0 3.55163 0 2.07278 0.354506C1.25691 0.54963 0.61434 1.12448 0.39625 1.85441C0 3.17747 0 5.9379 0 5.9379C0 5.9379 0 8.69833 0.39625 10.0214C0.61434 10.7513 1.25691 11.3023 2.07278 11.4973C3.55163 11.8519 9.48149 11.8519 9.48149 11.8519C9.48149 11.8519 15.4114 11.8519 16.8902 11.4973C17.7061 11.3023 18.3486 10.7513 18.5667 10.0214C18.963 8.69833 18.963 5.9379 18.963 5.9379C18.963 5.9379 18.963 3.17747 18.5667 1.85441ZM7.54208 8.44417L7.54208 3.43164L12.4983 5.93796L7.54208 8.44417Z" fill-rule="nonzero" transform="matrix(1 0 0 1 0 5.43594e-05)" fill="rgb(180, 180, 180)"/>
</svg>
