<?xml version="1.0" encoding="utf-8" ?>
<svg xmlns="http://www.w3.org/2000/svg" xmlns:xlink="http://www.w3.org/1999/xlink" width="20" height="20" viewBox="0 0 20 20">
	<defs>
		<clipPath id="clipPath6732305019">
			<path d="M0 0L20 0L20 20L0 20L0 0Z" fill-rule="nonzero" transform="matrix(1 0 0 1 -0 -0)"/>
		</clipPath>
	</defs>
	<g clip-path="url(#clipPath6732305019)">
		<path d="M-0.625 0C-0.625 0.345175 -0.345175 0.625 0 0.625L3.75 0.625L3.75 4.375C3.75 4.72017 4.02983 5 4.375 5C4.72017 5 5 4.72017 5 4.375L5 0Q5 -0.0615571 4.98799 -0.121931Q4.97598 -0.182306 4.95242 -0.239177Q4.92887 -0.296048 4.89467 -0.347231Q4.86047 -0.398414 4.81694 -0.441942Q4.77341 -0.485469 4.72223 -0.519668Q4.67105 -0.553868 4.61418 -0.577425Q4.55731 -0.600982 4.49693 -0.612991Q4.43656 -0.625 4.375 -0.625L0 -0.625C-0.345175 -0.625 -0.625 -0.345175 -0.625 0Z" fill-rule="evenodd" transform="matrix(1 0 0 1 13.75 5.625)" fill="rgb(227, 201, 52)"/>
		<path d="M16.0669 -0.441942C15.8229 -0.686017 15.4271 -0.686017 15.1831 -0.441942L9.81699 4.92412Q9.63392 5.10723 9.375 5.10723Q9.11607 5.10723 8.93296 4.92407L6.95098 2.94209Q6.40178 2.39277 5.625 2.39277Q4.84822 2.39277 4.29907 2.94204L-0.441942 7.68306C-0.686017 7.92713 -0.686017 8.32287 -0.441942 8.56694C-0.197866 8.81102 0.197866 8.81102 0.441942 8.56694L5.18296 3.82593Q5.36607 3.64277 5.625 3.64277Q5.88392 3.64277 6.06699 3.82588L8.04907 5.80796Q8.59822 6.35723 9.375 6.35723Q10.1518 6.35723 10.701 5.80791L16.0669 0.441942C16.311 0.197866 16.311 -0.197866 16.0669 -0.441942Z" fill-rule="evenodd" transform="matrix(1 0 0 1 1.875 6.25)" fill="rgb(227, 201, 52)"/>
	</g>
</svg>
