<?xml version="1.0" encoding="utf-8" ?>
<svg xmlns="http://www.w3.org/2000/svg" xmlns:xlink="http://www.w3.org/1999/xlink" width="24" height="24" viewBox="0 0 24 24">
	<defs>
		<clipPath id="clipPath0592492648">
			<path d="M0 0L24 0L24 24L0 24L0 0Z" fill-rule="nonzero" transform="matrix(1 0 0 1 -0 -0)"/>
		</clipPath>
	</defs>
	<g clip-path="url(#clipPath0592492648)">
		<path d="M10.4841 0.75Q7.89602 0.75 5.43057 2.22904Q2.82869 3.78993 0.747817 6.77271Q0.750008 6.76955 0.750008 6.76955Q0.750008 6.76955 0.750007 6.76955Q2.46864 9.45978 4.90971 11.0393Q7.55364 12.75 10.4841 12.75Q13.39 12.75 16.0566 11.0331Q17.2916 10.238 18.3726 9.12787Q19.4226 8.0496 20.2484 6.7565Q20.2509 6.75263 20.2509 6.7507Q20.2509 6.74877 20.2499 6.74715Q19.4219 5.46834 18.3674 4.39216Q17.2792 3.28143 16.0416 2.48234Q13.3585 0.75 10.4841 0.75L10.4841 0.75ZM10.4841 -0.75Q13.8007 -0.75 16.8552 1.22219Q18.2334 2.11208 19.4389 3.34239Q20.5989 4.52639 21.5112 5.93535Q21.7509 6.30779 21.7509 6.7507Q21.7509 7.19361 21.5126 7.56382Q20.6043 8.9862 19.4473 10.1744Q18.2472 11.4068 16.8686 12.2943Q13.8312 14.25 10.4841 14.25Q7.11068 14.25 4.09485 12.2986Q1.38007 10.5421 -0.509903 7.58357Q-0.756729 7.20154 -0.749819 6.74677Q-0.74291 6.29199 -0.4824 5.91448Q1.78199 2.66864 4.65891 0.942752Q7.4806 -0.75 10.4841 -0.75L10.4841 -0.75Z" fill-rule="nonzero" transform="matrix(1 0 0 1 1.49995 5.25)" fill="rgb(180, 180, 180)"/>
		<path d="M3.75 -0.75Q4.66502 -0.75 5.50183 -0.39606Q6.30953 -0.0544341 6.93198 0.56802Q7.55443 1.19047 7.89606 1.99817Q8.25 2.83498 8.25 3.75Q8.25 4.66502 7.89606 5.50183Q7.55443 6.30953 6.93198 6.93198Q6.30953 7.55443 5.50183 7.89606Q4.66502 8.25 3.75 8.25Q2.83498 8.25 1.99817 7.89606Q1.19047 7.55443 0.56802 6.93198Q-0.0544344 6.30953 -0.39606 5.50183Q-0.75 4.66502 -0.75 3.75Q-0.75 2.83498 -0.39606 1.99817Q-0.0544342 1.19047 0.56802 0.56802Q1.19047 -0.0544342 1.99817 -0.39606Q2.83498 -0.75 3.75 -0.75ZM3.75 0.75Q3.13915 0.75 2.58249 0.985447Q2.04426 1.2131 1.62868 1.62868Q1.2131 2.04426 0.985447 2.58249Q0.75 3.13915 0.75 3.75Q0.75 4.36085 0.985447 4.91751Q1.2131 5.45574 1.62868 5.87132Q2.04426 6.2869 2.58249 6.51455Q3.13915 6.75 3.75 6.75Q4.36085 6.75 4.91751 6.51455Q5.45574 6.2869 5.87132 5.87132Q6.2869 5.45574 6.51455 4.91751Q6.75 4.36085 6.75 3.75Q6.75 3.13915 6.51455 2.58249Q6.2869 2.04426 5.87132 1.62868Q5.45574 1.2131 4.91751 0.985447Q4.36085 0.75 3.75 0.75Z" fill-rule="nonzero" transform="matrix(1 0 0 1 8.25 8.25)" fill="rgb(180, 180, 180)"/>
	</g>
</svg>
