<?xml version="1.0" encoding="utf-8" ?>
<svg xmlns="http://www.w3.org/2000/svg" xmlns:xlink="http://www.w3.org/1999/xlink" width="14" height="14" viewBox="0 0 14 14">
	<path d="M0.751584 10.2439Q0.741063 10.2826 0.743735 10.3109Q0.743439 10.3078 0.738709 10.2928Q0.721066 10.2366 0.676595 10.1588Q0.66957 10.1472 0.656793 10.1281Q0.64402 10.109 0.630293 10.0906L0.621741 10.0791L0.613859 10.0671Q0.06891 9.24068 -0.215547 8.29249Q-0.500003 7.3443 -0.499969 6.35436Q-0.50432 4.95985 0.0451745 3.68388Q0.575246 2.45301 1.54476 1.50438Q2.51301 0.556983 3.76998 0.0374939Q5.07052 -0.5 6.49472 -0.5Q7.73739 -0.5 8.89519 -0.0862096Q10.0143 0.313746 10.9387 1.05761Q11.856 1.79578 12.4741 2.78572Q13.1056 3.79693 13.351 4.95407Q13.4251 5.29956 13.4625 5.65201Q13.4999 6.00445 13.5 6.35889Q13.5 7.75651 12.9685 9.03377Q12.452 10.2748 11.5077 11.2299Q10.5578 12.1907 9.31834 12.7167Q8.03094 13.2631 6.60659 13.2631Q6.16993 13.2631 5.58875 13.1703Q5.09292 13.091 4.70714 12.9831Q4.20615 12.8428 3.7121 12.6521Q3.67245 12.6368 3.62993 12.6289Q3.58741 12.621 3.54416 12.6209Q3.4962 12.6208 3.45048 12.6299Q3.40478 12.6391 3.36185 12.6573L3.34938 12.6626L1.21695 13.4322L1.04722 12.9619L1.24513 13.421Q1.17546 13.4511 1.10207 13.4702Q1.02868 13.4894 0.953238 13.4973L0.926581 13.5001L0.89978 13.5Q0.565692 13.499 0.331543 13.2607Q0.0973974 13.0224 0.102272 12.6883L0.102491 12.6733L0.103612 12.6583Q0.107541 12.6058 0.116987 12.554Q0.126434 12.5022 0.141294 12.4517L0.75217 10.2418L0.751584 10.2439ZM1.71602 10.5082L1.10064 12.7339Q1.10072 12.7337 1.10076 12.7334Q1.10081 12.7332 1.10083 12.7329L0.602219 12.6956L1.10217 12.7029Q1.10338 12.6194 1.04485 12.5598Q0.986308 12.5003 0.902783 12.5L0.901281 13L0.849324 12.5027Q0.849321 12.5027 0.84932 12.5027Q0.849311 12.5027 0.849308 12.5027L0.863226 12.4967L2.99717 11.7266L3.16691 12.1969L2.97196 11.7364Q3.1083 11.6787 3.25344 11.6495Q3.39858 11.6204 3.54527 11.6209Q3.68024 11.6211 3.81294 11.6458Q3.94563 11.6705 4.07234 11.7192Q4.52175 11.8927 4.97667 12.0201Q5.30728 12.1126 5.74654 12.1828Q6.24931 12.2631 6.60659 12.2631Q7.82752 12.2631 8.92766 11.7962Q9.98546 11.3473 10.7966 10.5269Q11.6038 9.71044 12.0452 8.64956Q12.5 7.55673 12.5 6.35923Q12.4999 6.05755 12.4681 5.75757Q12.4362 5.45757 12.3728 5.16156Q12.1639 4.17698 11.6259 3.31539Q11.0973 2.46886 10.3117 1.83668Q9.51882 1.19862 8.55864 0.855458Q7.56406 0.5 6.49472 0.5Q5.26902 0.5 4.15193 0.961676Q3.07395 1.40719 2.24413 2.21914Q1.41565 3.02977 0.963627 4.07941Q0.496323 5.16453 0.500031 6.35439Q0.500002 7.19755 0.74228 8.00514Q0.984558 8.81273 1.4487 9.51663L1.03128 9.79188L1.43227 9.4932Q1.46124 9.53209 1.48817 9.57239Q1.51512 9.6127 1.54472 9.66245Q1.81661 10.138 1.7166 10.5061L1.71602 10.5082Z" fill-rule="nonzero" transform="matrix(1 0 0 1 0.499969 0.5)" fill="rgb(180, 180, 180)"/>
</svg>
