<?xml version="1.0" encoding="utf-8" ?>
<svg xmlns="http://www.w3.org/2000/svg" xmlns:xlink="http://www.w3.org/1999/xlink" width="13" height="12" viewBox="0 0 13 12">
	<path d="M9.02907 0.5Q7.96716 0.5 7.1062 1.35482Q6.82693 1.63209 6.60383 1.96554Q6.49593 2.12682 6.44753 2.22361Q6.42551 2.26765 6.39532 2.30656Q6.36512 2.34546 6.32792 2.37773Q6.29072 2.40999 6.24793 2.43438Q6.20515 2.45877 6.15843 2.47434Q6.11171 2.48991 6.06285 2.49607Q6.014 2.50223 5.96487 2.49874Q5.91575 2.49525 5.86826 2.48224Q5.82076 2.46924 5.77671 2.44721Q5.62764 2.37268 5.55311 2.22361Q5.50471 2.12682 5.39681 1.96554Q5.17371 1.63209 4.89444 1.35482Q4.03348 0.5 2.97157 0.5Q2.47033 0.5 2.01445 0.699356Q1.57448 0.89176 1.23271 1.24374Q0.891314 1.59534 0.701282 2.05077Q0.505527 2.51991 0.500293 3.03044Q0.478618 5.18478 2.10522 7.16778Q3.37948 8.72123 5.99986 10.4997L6.00032 10.5L6.00032 10.5Q8.62096 8.72118 9.89518 7.16778Q11.5218 5.18473 11.5003 3.0303Q11.4951 2.51991 11.2994 2.05077Q11.1093 1.59534 10.7679 1.24374Q10.4262 0.89176 9.98619 0.699356Q9.53031 0.5 9.02907 0.5ZM9.02907 -0.5Q9.7394 -0.5 10.3869 -0.216867Q11.0068 0.0542307 11.4854 0.547119Q11.9591 1.03498 12.2222 1.66569Q12.4931 2.31474 12.5003 3.02033Q12.5254 5.53805 10.6683 7.80199Q9.30234 9.46729 6.56282 11.3268Q6.30824 11.5 6.00032 11.5Q5.6924 11.5 5.43828 11.3271Q2.69813 9.46737 1.33206 7.80199Q-0.524987 5.53806 -0.499654 3.02019Q-0.492422 2.31474 -0.2216 1.66569Q0.0415679 1.03498 0.515272 0.547119Q0.993858 0.0542306 1.61378 -0.216866Q2.26123 -0.5 2.97157 -0.5Q4.4456 -0.5 5.59901 0.645183Q5.94924 0.992909 6.22794 1.40946Q6.37093 1.62318 6.44753 1.77639L6.00032 2L5.55311 1.77639Q5.62971 1.62318 5.7727 1.40946Q6.0514 0.992908 6.40163 0.645183Q7.55504 -0.5 9.02907 -0.5Z" fill-rule="nonzero" transform="matrix(1 0 0 1 0.499681 0.5)" fill="rgb(180, 180, 180)"/>
</svg>
