<?xml version="1.0" encoding="utf-8" ?>
<svg xmlns="http://www.w3.org/2000/svg" xmlns:xlink="http://www.w3.org/1999/xlink" width="12.5" height="17.5" viewBox="0 0 12.5 17.5">
	<path d="M9.375 0.625L1.875 0.625Q1.35723 0.625 0.991116 0.991116Q0.625 1.35723 0.625 1.875L0.625 16.25L0 16.25L-0.415227 15.7829L5.20977 10.7829Q5.25232 10.7451 5.301 10.7155Q5.34968 10.686 5.40289 10.6658Q5.4561 10.6456 5.51209 10.6353Q5.56808 10.625 5.625 10.625Q5.68193 10.625 5.73791 10.6353Q5.7939 10.6456 5.84711 10.6658Q5.90032 10.686 5.949 10.7155Q5.99768 10.7451 6.04023 10.7829L11.6652 15.7829L11.25 16.25L10.625 16.25L10.625 1.875Q10.625 1.35723 10.2589 0.991117Q9.89277 0.625 9.375 0.625L9.375 0.625ZM9.375 -0.625Q10.4105 -0.625 11.1428 0.107233Q11.875 0.839465 11.875 1.875L11.875 16.25Q11.875 16.3648 11.8342 16.4721Q11.7934 16.5794 11.7171 16.6652Q11.6762 16.7112 11.6271 16.7484Q11.5781 16.7855 11.5227 16.8124Q11.4673 16.8392 11.4077 16.8548Q11.3482 16.8703 11.2867 16.8739Q11.2253 16.8775 11.1643 16.8691Q11.1033 16.8606 11.0451 16.8405Q10.987 16.8203 10.9339 16.7892Q10.8808 16.758 10.8348 16.7171L5.20977 11.7171L5.625 11.25L6.04023 11.7171L0.415227 16.7171Q0.329422 16.7934 0.222113 16.8342Q0.114804 16.875 0 16.875Q-0.0615571 16.875 -0.121931 16.863Q-0.182306 16.851 -0.239177 16.8274Q-0.296048 16.8039 -0.347231 16.7697Q-0.398414 16.7355 -0.441942 16.6919Q-0.485469 16.6484 -0.519668 16.5972Q-0.553868 16.546 -0.577425 16.4892Q-0.600982 16.4323 -0.612991 16.3719Q-0.625 16.3116 -0.625 16.25L-0.625 1.875Q-0.625 0.839466 0.107233 0.107233Q0.839465 -0.625 1.875 -0.625L9.375 -0.625L9.375 -0.625Z" fill-rule="nonzero" transform="matrix(1 0 0 1 0.625 0.625)" fill="rgb(180, 180, 180)"/>
</svg>
