<?xml version="1.0" encoding="utf-8" ?>
<svg xmlns="http://www.w3.org/2000/svg" xmlns:xlink="http://www.w3.org/1999/xlink" width="20" height="20" viewBox="0 0 20 20">
	<defs>
		<clipPath id="clipPath8934998422">
			<path d="M0 0L20 0L20 20L0 20L0 0Z" fill-rule="nonzero" transform="matrix(1 0 0 1 -0 -0)"/>
		</clipPath>
	</defs>
	<g clip-path="url(#clipPath8934998422)">
		<path d="M1.875 -0.625Q2.38321 -0.625 2.8483 -0.428281Q3.29706 -0.238473 3.64277 0.107233Q3.98847 0.452939 4.17828 0.901695Q4.375 1.36679 4.375 1.875Q4.375 2.38321 4.17828 2.8483Q3.98847 3.29706 3.64277 3.64277Q3.29706 3.98847 2.8483 4.17828Q2.38321 4.375 1.875 4.375Q1.36679 4.375 0.901695 4.17828Q0.452939 3.98847 0.107233 3.64277Q-0.238473 3.29706 -0.428281 2.8483Q-0.625 2.38321 -0.625 1.875Q-0.625 1.36679 -0.428281 0.901695Q-0.238473 0.452939 0.107233 0.107233Q0.452939 -0.238473 0.901695 -0.428281Q1.36679 -0.625 1.875 -0.625ZM1.875 0.625Q1.35723 0.625 0.991117 0.991117Q0.625 1.35723 0.625 1.875Q0.625 2.39277 0.991117 2.75888Q1.35723 3.125 1.875 3.125Q2.39277 3.125 2.75888 2.75888Q3.125 2.39277 3.125 1.875Q3.125 1.35723 2.75888 0.991117Q2.39277 0.625 1.875 0.625Z" fill-rule="nonzero" transform="matrix(1 0 0 1 3.125 8.125)" fill="rgb(180, 180, 180)"/>
		<path d="M1.875 -0.625Q2.38321 -0.625 2.8483 -0.428281Q3.29706 -0.238473 3.64277 0.107233Q3.98847 0.452939 4.17828 0.901695Q4.375 1.36679 4.375 1.875Q4.375 2.38321 4.17828 2.8483Q3.98847 3.29706 3.64277 3.64277Q3.29706 3.98847 2.8483 4.17828Q2.38321 4.375 1.875 4.375Q1.36679 4.375 0.901695 4.17828Q0.452939 3.98847 0.107233 3.64277Q-0.238473 3.29706 -0.428281 2.8483Q-0.625 2.38321 -0.625 1.875Q-0.625 1.36679 -0.428281 0.901695Q-0.238473 0.452939 0.107233 0.107233Q0.452939 -0.238473 0.901695 -0.428281Q1.36679 -0.625 1.875 -0.625ZM1.875 0.625Q1.35723 0.625 0.991117 0.991117Q0.625 1.35723 0.625 1.875Q0.625 2.39277 0.991117 2.75888Q1.35723 3.125 1.875 3.125Q2.39277 3.125 2.75888 2.75888Q3.125 2.39277 3.125 1.875Q3.125 1.35723 2.75888 0.991117Q2.39277 0.625 1.875 0.625Z" fill-rule="nonzero" transform="matrix(1 0 0 1 13.125 2.5)" fill="rgb(180, 180, 180)"/>
		<path d="M1.875 -0.625Q2.38321 -0.625 2.8483 -0.428281Q3.29706 -0.238473 3.64277 0.107233Q3.98847 0.452939 4.17828 0.901695Q4.375 1.36679 4.375 1.875Q4.375 2.38321 4.17828 2.8483Q3.98847 3.29706 3.64277 3.64277Q3.29706 3.98847 2.8483 4.17828Q2.38321 4.375 1.875 4.375Q1.36679 4.375 0.901695 4.17828Q0.452939 3.98847 0.107233 3.64277Q-0.238473 3.29706 -0.428281 2.8483Q-0.625 2.38321 -0.625 1.875Q-0.625 1.36679 -0.428281 0.901695Q-0.238473 0.452939 0.107233 0.107233Q0.452939 -0.238473 0.901695 -0.428281Q1.36679 -0.625 1.875 -0.625ZM1.875 0.625Q1.35723 0.625 0.991117 0.991117Q0.625 1.35723 0.625 1.875Q0.625 2.39277 0.991117 2.75888Q1.35723 3.125 1.875 3.125Q2.39277 3.125 2.75888 2.75888Q3.125 2.39277 3.125 1.875Q3.125 1.35723 2.75888 0.991117Q2.39277 0.625 1.875 0.625Z" fill-rule="nonzero" transform="matrix(1 0 0 1 13.125 13.75)" fill="rgb(180, 180, 180)"/>
		<path d="M6.42562 -0.544736C6.72647 -0.713961 7.10754 -0.607257 7.27677 -0.30641C7.44599 -0.00556311 7.33929 0.375512 7.03844 0.544736L0.30641 4.33145C0.0055632 4.50068 -0.375512 4.39398 -0.544736 4.09313C-0.713961 3.79228 -0.607257 3.41121 -0.30641 3.24198L6.42562 -0.544736ZM-0.544736 5.31859C-0.71396 5.61944 -0.607257 6.00051 -0.30641 6.16974L6.42562 9.95646C6.72647 10.1257 7.10754 10.019 7.27677 9.71813C7.44599 9.41728 7.33929 9.03621 7.03844 8.86698L0.306411 5.08026C0.00556388 4.91104 -0.375512 5.01774 -0.544736 5.31859Z" fill-rule="evenodd" transform="matrix(1 0 0 1 6.63398 5.29414)" fill="rgb(180, 180, 180)"/>
	</g>
</svg>
