<?xml version="1.0" encoding="utf-8" ?>
<svg xmlns="http://www.w3.org/2000/svg" xmlns:xlink="http://www.w3.org/1999/xlink" width="28" height="32" viewBox="0 0 28 32">
	<path d="M0 29C0 30.6562 1.34375 32 3 32L25 32C26.6562 32 28 30.6562 28 29L28 12L0 12L0 29ZM20 16.75C20 16.3375 20.3375 16 20.75 16L23.25 16C23.6625 16 24 16.3375 24 16.75L24 19.25C24 19.6625 23.6625 20 23.25 20L20.75 20C20.3375 20 20 19.6625 20 19.25L20 16.75ZM20 24.75C20 24.3375 20.3375 24 20.75 24L23.25 24C23.6625 24 24 24.3375 24 24.75L24 27.25C24 27.6625 23.6625 28 23.25 28L20.75 28C20.3375 28 20 27.6625 20 27.25L20 24.75ZM12 16.75C12 16.3375 12.3375 16 12.75 16L15.25 16C15.6625 16 16 16.3375 16 16.75L16 19.25C16 19.6625 15.6625 20 15.25 20L12.75 20C12.3375 20 12 19.6625 12 19.25L12 16.75ZM12 24.75C12 24.3375 12.3375 24 12.75 24L15.25 24C15.6625 24 16 24.3375 16 24.75L16 27.25C16 27.6625 15.6625 28 15.25 28L12.75 28C12.3375 28 12 27.6625 12 27.25L12 24.75ZM4 16.75C4 16.3375 4.3375 16 4.75 16L7.25 16C7.6625 16 8 16.3375 8 16.75L8 19.25C8 19.6625 7.6625 20 7.25 20L4.75 20C4.3375 20 4 19.6625 4 19.25L4 16.75ZM4 24.75C4 24.3375 4.3375 24 4.75 24L7.25 24C7.6625 24 8 24.3375 8 24.75L8 27.25C8 27.6625 7.6625 28 7.25 28L4.75 28C4.3375 28 4 27.6625 4 27.25L4 24.75ZM25 4L22 4L22 1C22 0.45 21.55 0 21 0L19 0C18.45 0 18 0.45 18 1L18 4L10 4L10 1C10 0.45 9.55 0 9 0L7 0C6.45 0 6 0.45 6 1L6 4L3 4C1.34375 4 0 5.34375 0 7L0 10L28 10L28 7C28 5.34375 26.6562 4 25 4Z" fill-rule="nonzero" transform="matrix(1 0 0 1 0 0)" fill="rgb(227, 201, 52)"/>
</svg>
