<?xml version="1.0" encoding="utf-8" ?>
<svg xmlns="http://www.w3.org/2000/svg" xmlns:xlink="http://www.w3.org/1999/xlink" width="16" height="8.96" viewBox="0 0 16 8.96">
	<path d="M2.4 3.84C3.2825 3.84 4 3.266 4 2.56C4 1.854 3.2825 1.28 2.4 1.28C1.5175 1.28 0.8 1.854 0.8 2.56C0.8 3.266 1.5175 3.84 2.4 3.84ZM13.6 3.84C14.4825 3.84 15.2 3.266 15.2 2.56C15.2 1.854 14.4825 1.28 13.6 1.28C12.7175 1.28 12 1.854 12 2.56C12 3.266 12.7175 3.84 13.6 3.84ZM14.4 4.48L12.8 4.48C12.36 4.48 11.9625 4.622 11.6725 4.852C12.68 5.294 13.395 6.092 13.55 7.04L15.2 7.04C15.6425 7.04 16 6.754 16 6.4L16 5.76C16 5.054 15.2825 4.48 14.4 4.48ZM8 4.48C9.5475 4.48 10.8 3.478 10.8 2.24C10.8 1.002 9.5475 0 8 0C6.4525 0 5.2 1.002 5.2 2.24C5.2 3.478 6.4525 4.48 8 4.48ZM9.92 5.12L9.7125 5.12C9.1925 5.32 8.615 5.44 8 5.44C7.385 5.44 6.81 5.32 6.2875 5.12L6.08 5.12C4.49 5.12 3.2 6.152 3.2 7.424L3.2 8C3.2 8.53 3.7375 8.96 4.4 8.96L11.6 8.96C12.2625 8.96 12.8 8.53 12.8 8L12.8 7.424C12.8 6.152 11.51 5.12 9.92 5.12ZM4.3275 4.852C4.0375 4.622 3.64 4.48 3.2 4.48L1.6 4.48C0.7175 4.48 0 5.054 0 5.76L0 6.4C0 6.754 0.3575 7.04 0.8 7.04L2.4475 7.04C2.605 6.092 3.32 5.294 4.3275 4.852Z" fill-rule="nonzero" transform="matrix(1 0 0 1 0 9.76324e-05)" fill="rgb(227, 201, 52)"/>
</svg>
