<?xml version="1.0" encoding="utf-8" ?>
<svg xmlns="http://www.w3.org/2000/svg" xmlns:xlink="http://www.w3.org/1999/xlink" width="13.5425" height="13.5425" viewBox="0 0 13.5425 13.5425">
	<path d="M10.6873 9.74453L13.5425 12.5997L12.5997 13.5425L9.74453 10.6873C8.71793 11.5087 7.416 12 6 12C2.688 12 0 9.312 0 6C0 2.688 2.688 0 6 0C9.312 0 12 2.688 12 6C12 7.416 11.5087 8.71793 10.6873 9.74453ZM9.3498 9.24987C10.165 8.40973 10.6667 7.26373 10.6667 6C10.6667 3.42167 8.57833 1.33333 6 1.33333C3.42167 1.33333 1.33333 3.42167 1.33333 6C1.33333 8.57833 3.42167 10.6667 6 10.6667C7.26373 10.6667 8.40973 10.165 9.24987 9.3498L9.3498 9.24987Z" fill-rule="nonzero" transform="matrix(1 0 0 1 -4.06504e-05 8.14199e-05)" fill="rgb(180, 180, 180)"/>
</svg>
