<?xml version="1.0" encoding="utf-8" ?>
<svg xmlns="http://www.w3.org/2000/svg" xmlns:xlink="http://www.w3.org/1999/xlink" width="18" height="18" viewBox="0 0 18 18">
	<path d="M11.1213 6.87853C15.4171 11.1743 17.9497 15.6065 16.7782 16.778C16.3031 17.2531 15.2918 17.1191 13.971 16.5054C10.746 18.645 6.44716 18.4872 3.38175 16.0319L3.34315 16.0709L1.92893 14.6567L1.96734 14.6173C-0.487378 11.552 -0.644968 7.2536 1.49456 4.02993C0.880752 2.70785 0.746782 1.69672 1.22183 1.22168C2.34959 0.0939093 6.49865 2.39854 10.639 6.40413L11.1213 6.87853ZM9.7071 8.2927C7.823 6.40864 5.86963 4.84183 4.23581 3.86941L4.05025 4.0501C1.55691 6.54345 1.33771 10.4498 3.39266 13.1916L5.23943 11.3461C5.06128 10.6789 5.23392 9.9375 5.75736 9.4141C6.53841 8.633 7.8047 8.633 8.5858 9.4141C9.3668 10.1951 9.3668 11.4614 8.5858 12.2425C8.0626 12.7656 7.3218 12.9384 6.65487 12.7607L4.80749 14.6066C7.5493 16.6622 11.4562 16.4432 13.9497 13.9496L14.1286 13.7622L14.076 13.6732C13.1001 12.0581 11.5564 10.1421 9.7071 8.2927ZM16.7782 1.22168C17.5592 2.00273 17.5592 3.26906 16.7782 4.0501C16.7254 4.10287 16.6704 4.15207 16.6135 4.19771C18.2057 6.71492 18.4267 9.852 17.276 12.5425C16.8994 11.8063 16.4347 11.0315 15.8899 10.2367C16.2795 8.0595 15.6326 5.73296 13.9497 4.0501C12.2669 2.36725 9.9404 1.72037 7.7627 2.10945C6.96765 1.56476 6.19311 1.10017 5.45731 0.724349C8.1478 -0.426771 11.2849 -0.205851 13.8039 1.38683C13.8478 1.32943 13.897 1.27444 13.9497 1.22168C14.7308 0.440629 15.9971 0.440629 16.7782 1.22168Z" fill-rule="nonzero" transform="matrix(1 0 0 1 -2.38419e-06 7.15256e-07)" fill="rgb(180, 180, 180)"/>
</svg>
